# xmcd
#
# Track frame offsets:
#	150
#	17404
#	34624
#	52161
#	72342
#	83358
#	98847
#	115925
#	134801
#	144701
#	155467
#	181501
#	203446
#	236303
#	248669
#	263937
#	283995
#	311935
#
# Disc length: 4618 seconds
#
# Revision: 0
# Processed by: cddbd v1.5.2PL0 Copyright (c) Steve Scherf et al.
# Submitted via: EZCDAudioConverter 1.3.4.1
#
DISCID=f8120812
DTITLE=Tiny Tim - Chameleon
DYEAR=1900
DGENRE=
TTITLE0=Brother, Can You Spare A Dime?
TTITLE1=It's A Long Way To Tipperary
TTITLE2=Deep Night
TTITLE3=The Song Without A Name
TTITLE4=The Hukilau
TTITLE5=The Great Pretender
TTITLE6=My Song
TTITLE7=Street Of Dreams
TTITLE8=I'm Gonna Be A Country Queen
TTITLE9=Mickey Mouse Club March
TTITLE10=Stayin' Alive
TTITLE11=My Way
TTITLE12=St. Louis Blues
TTITLE13=Dancing In The Street [Take 2]
TTITLE14=Tiny Bubbles
TTITLE15=Dietetic Baby
TTITLE16=St. Louis Blues [Alternate Take]
TTITLE17=Dancing In The Street - Opening With 20th Century Fox Fanfare With Ci
TTITLE17=nemaScope Extension [Take 4]
EXTD=
EXTT0=
EXTT1=
EXTT2=
EXTT3=
EXTT4=
EXTT5=
EXTT6=
EXTT7=
EXTT8=
EXTT9=
EXTT10=
EXTT11=
EXTT12=
EXTT13=
EXTT14=
EXTT15=
EXTT16=
EXTT17=
PLAYORDER=
